<?xml version="1.0" standalone="no"?>
<!DOCTYPE svg PUBLIC "-//W3C//DTD SVG 20010904//EN"
 "http://www.w3.org/TR/2001/REC-SVG-20010904/DTD/svg10.dtd">
<svg version="1.0" xmlns="http://www.w3.org/2000/svg"
 width="540.000000pt" height="540.000000pt" viewBox="0 0 540.000000 540.000000"
 preserveAspectRatio="xMidYMid meet">
<metadata>
Created by potrace 1.11, written by Peter Selinger 2001-2013
</metadata>
<g transform="translate(0.000000,540.000000) scale(0.100000,-0.100000)"
fill="#000000" stroke="none">
<path d="M2690 5003 c0 -7 -9 -13 -21 -13 -63 0 -209 -129 -248 -219 -12 -30
-21 -64 -18 -77 2 -14 -1 -24 -7 -24 -8 0 -8 -2 0 -8 7 -4 12 -27 12 -52 1
-31 -2 -40 -8 -30 -8 12 -10 11 -10 -5 0 -11 5 -27 11 -35 9 -12 10 -11 4 5
-4 13 -3 17 4 10 5 -5 11 -26 12 -45 2 -19 8 -42 13 -50 10 -13 9 -13 -6 -1
-10 7 -16 17 -13 21 3 5 0 12 -6 16 -7 4 -9 3 -5 -4 3 -5 0 -13 -6 -15 -10 -4
-10 -6 -1 -6 7 -1 10 -7 7 -14 -2 -7 6 -23 18 -34 13 -12 28 -28 33 -35 54
-71 118 -136 131 -131 7 3 14 0 14 -6 0 -6 8 -11 18 -11 10 0 22 -4 27 -9 6
-5 21 -11 35 -13 14 -1 31 -9 39 -16 8 -8 17 -10 20 -5 3 4 35 9 71 10 133 5
141 7 215 63 60 45 161 158 151 168 -2 2 5 31 15 65 14 44 18 76 13 110 -3 28
-2 47 4 47 13 0 22 39 11 46 -5 3 -9 0 -9 -6 0 -6 -4 -8 -10 -5 -5 3 -10 19
-10 36 0 16 -5 29 -11 29 -5 0 -7 4 -4 10 3 5 1 15 -5 22 -5 7 -29 37 -51 66
-58 74 -138 125 -221 141 -92 18 -208 20 -208 4z m113 -70 c-12 -4 -6 -33 8
-43 4 -3 4 -12 -1 -19 -7 -12 -12 -12 -32 1 -14 9 -25 22 -25 30 0 7 -4 20 -7
29 -6 12 0 14 31 11 21 -3 33 -7 26 -9z m-73 3 c0 -3 -4 -8 -10 -11 -5 -3 -10
-1 -10 4 0 6 5 11 10 11 6 0 10 -2 10 -4z m226 -68 c-9 -5 -14 -13 -11 -19 11
-17 -6 -31 -21 -18 -12 10 -18 8 -29 -7 -8 -10 -12 -28 -9 -39 4 -15 3 -16 -4
-6 -6 8 -15 10 -22 6 -9 -6 -11 -4 -5 5 5 8 2 18 -9 26 -11 8 -13 14 -7 19 6
3 11 1 11 -4 0 -6 6 -10 13 -8 17 3 48 38 41 48 -2 5 7 11 21 15 14 3 25 11
25 18 0 6 6 2 12 -8 8 -15 7 -21 -6 -28z m-239 -10 c5 12 33 18 33 6 0 -12
-28 -33 -36 -26 -5 4 -2 -1 6 -12 13 -16 12 -20 -8 -36 -12 -10 -22 -23 -22
-29 0 -6 -4 -11 -9 -11 -5 0 -14 -13 -21 -30 -7 -16 -16 -30 -21 -30 -5 0 -9
-9 -9 -19 0 -21 -26 -36 -35 -21 -3 5 2 21 11 35 9 14 13 25 10 25 -4 0 -4 6
1 13 4 6 6 20 5 30 -3 16 7 21 34 18 12 -1 12 48 0 67 -4 6 -1 20 6 32 13 20
13 20 31 -2 13 -16 20 -19 24 -10z m-112 12 c-3 -5 -12 -10 -18 -10 -7 0 -6 4
3 10 19 12 23 12 15 0z m434 -37 c6 -11 6 -24 -1 -36 -8 -15 -6 -18 9 -15 13
2 17 -2 15 -17 -2 -11 -7 -22 -11 -25 -4 -3 -7 -17 -6 -32 1 -16 -2 -28 -7
-28 -5 0 -7 -4 -3 -9 3 -5 0 -13 -6 -17 -6 -3 -15 -1 -19 6 -13 21 -45 7 -48
-22 -3 -22 4 -32 32 -50 42 -27 41 -43 0 -43 -16 0 -36 -4 -44 -9 -13 -9 -13
-8 -1 7 8 10 11 21 7 25 -4 4 -12 -1 -17 -11 -14 -24 -24 -21 -37 8 -10 22
-18 25 -62 25 -50 0 -50 0 -38 23 10 19 13 20 16 5 5 -26 15 -22 34 17 14 28
14 33 3 28 -18 -6 -20 20 -2 35 14 12 47 -7 47 -27 0 -24 29 -9 39 21 6 17 8
29 5 25 -7 -7 -34 17 -34 31 0 14 73 77 90 77 8 0 14 6 13 13 -4 18 15 15 26
-5z m-225 -88 c-18 -14 -18 -14 2 -9 28 7 41 -13 21 -33 -13 -14 -18 -13 -46
8 -17 12 -31 31 -31 41 0 11 4 17 10 13 5 -3 17 3 27 13 17 18 18 18 27 0 7
-14 4 -22 -10 -33z m-299 26 c3 -5 2 -12 -3 -15 -5 -3 -9 1 -9 9 0 17 3 19 12
6z m-7 -56 c-3 -3 -9 2 -12 12 -6 14 -5 15 5 6 7 -7 10 -15 7 -18z m264 -14
c9 -1 3 -31 -8 -39 -5 -4 -10 -16 -11 -27 -1 -19 -1 -19 12 -1 15 20 37 14 29
-9 -3 -8 -9 -14 -12 -13 -22 2 -42 -4 -42 -13 0 -13 -61 -99 -69 -99 -3 1 -14
17 -23 38 l-17 37 19 -23 20 -24 11 29 c6 15 12 49 13 76 1 35 5 49 19 53 9 3
17 9 17 14 0 4 8 7 18 5 9 -2 20 -4 24 -4z m-268 -107 c3 -8 2 -12 -4 -9 -6 3
-10 10 -10 16 0 14 7 11 14 -7z m51 -54 c10 -11 15 -23 12 -27 -4 -3 -7 -1 -7
6 0 7 -4 9 -10 6 -5 -3 -10 -16 -10 -27 0 -30 -10 -16 -20 26 -9 42 6 48 35
16z m69 -52 c6 -4 12 -19 13 -33 1 -18 -3 -25 -16 -25 -25 0 -43 24 -39 52 4
32 22 51 27 30 2 -10 8 -20 15 -24z m46 -89 c0 -6 -4 -7 -10 -4 -5 3 -10 11
-10 16 0 6 5 7 10 4 6 -3 10 -11 10 -16z"/>
<path d="M2774 4118 c3 -40 8 -85 11 -100 l7 -27 -48 24 c-42 20 -58 23 -111
18 -35 -3 -63 -10 -63 -15 0 -5 -4 -7 -9 -4 -8 5 -110 -43 -136 -64 -5 -4 -30
-19 -55 -33 -52 -29 -130 -97 -130 -114 0 -6 -5 -13 -11 -15 -5 -2 -11 -10
-12 -18 -1 -8 -10 -26 -20 -40 -9 -13 -17 -30 -17 -38 0 -7 -7 -27 -17 -45 -9
-18 -18 -47 -19 -66 -2 -18 -8 -39 -13 -45 -6 -7 -12 -34 -12 -59 -1 -26 -5
-47 -9 -47 -3 0 -7 -12 -8 -27 -1 -16 -5 -50 -7 -78 -6 -55 -12 -145 -14 -188
-1 -24 -4 -27 -21 -22 -36 12 -20 -9 47 -60 142 -108 146 -117 71 -159 -44
-25 -59 -38 -40 -35 20 3 32 -3 32 -17 0 -9 6 -14 13 -11 16 6 41 -8 43 -23 1
-5 2 -15 3 -22 0 -6 4 -8 8 -5 3 4 12 2 20 -4 7 -6 13 -8 13 -4 0 4 7 2 15 -5
8 -7 15 -23 15 -35 0 -31 48 -88 67 -81 17 7 54 -33 48 -51 -2 -7 1 -13 8 -13
7 0 13 -12 14 -26 0 -15 7 -30 15 -35 7 -5 8 -9 2 -9 -8 0 -8 -10 0 -34 6 -19
13 -34 16 -33 17 4 50 -17 50 -31 0 -19 33 -52 51 -52 5 0 7 -5 3 -11 -3 -6 0
-15 7 -20 12 -7 12 -9 0 -9 -10 0 -11 -3 -2 -14 8 -10 9 -16 1 -21 -7 -4 -7
-12 0 -26 6 -11 15 -17 20 -14 5 3 11 1 15 -5 3 -6 -1 -13 -9 -16 -12 -4 -13
-11 -5 -32 6 -15 18 -35 26 -44 9 -10 12 -18 6 -18 -5 0 -9 -19 -9 -42 1 -29
5 -42 14 -40 6 1 12 -7 12 -17 0 -11 5 -23 12 -27 7 -5 8 -3 3 5 -6 10 -3 11
13 2 13 -7 19 -17 15 -26 -4 -13 -8 -13 -21 -3 -13 11 -14 10 -6 -12 5 -14 8
-40 7 -58 -1 -26 2 -32 13 -28 8 3 13 2 10 -3 -3 -4 6 -13 20 -20 14 -6 22
-16 19 -21 -3 -6 4 -10 17 -11 22 0 22 -1 3 -9 -19 -8 -19 -9 -1 -9 20 -1 20
-1 0 -15 -18 -14 -18 -15 7 -21 20 -5 25 -11 22 -26 -3 -10 -1 -19 4 -19 4 0
8 -16 7 -35 -1 -19 2 -35 7 -35 5 0 9 8 9 18 0 14 2 15 10 2 5 -9 5 -19 -2
-27 -8 -10 -8 -20 0 -38 7 -14 8 -25 3 -25 -15 0 -22 -33 -9 -42 10 -6 10 -8
0 -8 -9 0 -8 -7 4 -25 11 -16 15 -39 12 -67 -6 -62 23 -86 140 -117 40 -11 58
-31 28 -31 -8 0 -17 -4 -21 -10 -8 -12 58 -8 68 5 4 6 11 4 17 -5 8 -12 10
-12 10 -1 0 11 4 10 19 -3 13 -12 20 -14 23 -5 3 9 12 9 38 1 43 -13 165 -8
201 8 28 13 49 47 49 80 0 22 -37 104 -60 134 -8 10 -32 36 -54 56 -33 33 -37
40 -27 59 10 18 9 21 -8 21 -11 0 -21 5 -23 11 -2 5 -10 11 -18 12 -8 2 -21 6
-27 10 -7 5 -17 6 -23 2 -12 -8 -36 40 -44 90 -4 22 -8 84 -11 138 -4 94 -3
97 18 97 12 0 29 5 37 10 13 8 13 10 -1 10 -20 0 -33 27 -16 34 8 3 9 7 2 13
-12 9 -15 93 -4 93 4 0 6 9 4 20 -2 11 0 18 6 15 17 -11 31 6 17 22 -7 8 -14
27 -16 41 -3 22 -1 24 13 12 8 -7 18 -10 22 -6 3 3 1 6 -5 6 -7 0 -12 5 -12
11 0 6 7 8 16 5 8 -3 12 -2 9 4 -9 14 2 12 41 -6 37 -18 43 -31 19 -40 -11 -5
-13 -10 -5 -19 5 -6 9 -14 7 -16 -1 -2 4 2 11 10 6 8 12 20 12 25 0 6 5 3 11
-6 5 -10 18 -18 28 -18 21 0 51 -30 51 -51 1 -23 27 -52 41 -43 9 5 10 2 6 -9
-4 -10 0 -20 10 -25 17 -10 27 -62 12 -62 -5 0 -9 -7 -9 -15 0 -8 5 -15 11
-15 5 0 7 -4 4 -10 -3 -5 6 -12 20 -16 17 -4 23 -10 17 -18 -5 -6 -12 -23 -16
-38 -5 -21 -3 -28 9 -28 8 0 15 -7 15 -15 0 -8 6 -15 13 -15 22 -1 57 -37 51
-54 -4 -10 -1 -16 8 -16 10 0 15 -11 16 -30 0 -17 -4 -30 -9 -30 -6 0 -8 -9
-4 -19 3 -11 2 -22 -3 -25 -13 -8 -15 -116 -3 -116 6 0 13 -11 17 -25 4 -14 9
-24 12 -21 8 8 42 -13 42 -27 0 -7 15 -12 38 -12 20 1 40 -4 44 -10 5 -6 8 -6
8 3 0 6 9 12 21 12 15 0 19 -5 15 -16 -3 -8 -2 -12 3 -9 16 9 23 -15 10 -31
-10 -13 -10 -17 1 -24 8 -5 18 -6 22 -4 4 3 8 -2 8 -10 0 -9 4 -16 9 -16 13 0
32 26 24 33 -3 4 -1 7 5 7 7 0 12 10 13 23 l0 22 9 -23 c7 -17 15 -21 33 -17
31 8 51 -16 43 -50 -5 -21 -10 -24 -25 -15 -11 5 -26 16 -34 25 -13 13 -15 12
-20 -5 -4 -14 0 -20 11 -20 12 0 13 -3 4 -12 -9 -9 -16 -7 -31 6 -18 17 -19
17 -26 -4 -5 -15 -12 -19 -26 -15 -11 4 -19 2 -19 -5 0 -7 -7 -10 -15 -6 -12
4 -14 -3 -11 -43 2 -27 7 -54 11 -60 7 -13 -38 -11 -51 1 -3 4 -13 0 -21 -8
-8 -8 -18 -12 -23 -9 -11 7 -21 -22 -13 -42 5 -11 3 -14 -6 -9 -7 5 -10 17 -8
28 4 12 1 18 -6 15 -7 -2 -12 -14 -11 -25 0 -15 -3 -19 -11 -12 -6 5 -17 5
-25 0 -8 -5 -18 -6 -24 -3 -5 3 -6 1 -2 -5 15 -25 -6 -33 -27 -11 l-21 23 -6
-23 c-3 -12 -9 -22 -15 -23 -21 -1 -35 -10 -29 -19 9 -15 -6 -10 -24 8 -15 15
-17 14 -23 -14 -8 -41 -17 -53 -34 -46 -8 3 -15 0 -15 -5 0 -6 -11 -9 -24 -6
-14 2 -28 -2 -33 -9 -12 -20 -39 -27 -52 -14 -8 8 -11 8 -11 -1 0 -12 -19 -34
-55 -62 -17 -13 -18 -13 -11 0 4 8 -2 4 -13 -10 -16 -19 -20 -20 -14 -6 5 15
3 17 -8 10 -8 -4 -22 -7 -31 -6 -16 3 -24 -13 -19 -41 2 -13 -47 -7 -62 8 -13
13 -16 13 -27 0 -15 -18 -40 -20 -40 -3 0 6 -3 8 -6 5 -4 -4 -1 -13 6 -22 7
-8 9 -15 4 -16 -69 -6 -104 7 -104 38 0 7 -5 13 -11 13 -16 0 -39 -26 -31 -35
4 -4 0 -6 -8 -3 -8 3 -18 21 -21 41 -6 40 -19 62 -19 33 0 -13 -5 -16 -20 -11
-14 4 -22 1 -27 -12 -13 -39 -26 -46 -38 -22 l-12 22 -22 -22 c-19 -19 -25
-19 -22 2 0 4 -6 7 -15 7 -8 0 -13 -4 -10 -9 3 -4 -1 -17 -9 -27 -13 -17 -14
-18 -15 -1 0 17 -30 25 -30 8 0 -11 -53 -1 -61 11 -3 5 -13 2 -22 -6 -17 -18
-42 -22 -32 -6 3 6 0 10 -9 10 -8 0 -17 6 -19 13 -3 6 -6 2 -6 -10 -1 -28 -17
-30 -26 -4 -7 22 -49 33 -65 17 -6 -6 -10 -7 -9 -1 2 6 -3 20 -10 33 l-12 23
-18 -20 c-21 -24 -31 -18 -31 16 0 20 -4 23 -20 18 -23 -7 -67 19 -75 45 -3
11 -12 17 -20 14 -8 -3 -24 10 -39 33 -14 21 -26 34 -26 29 0 -5 -7 -3 -15 4
-11 9 -15 9 -15 1 0 -7 -9 -3 -21 8 -11 10 -32 18 -45 16 -16 -1 -28 4 -35 16
-5 11 -15 19 -22 19 -7 0 -29 15 -49 33 -60 53 -66 57 -82 51 -16 -6 -76 33
-76 50 0 17 -48 36 -54 22 -2 -6 -5 -4 -5 5 -1 22 -51 35 -63 17 -7 -9 -8 -4
-4 14 6 26 -2 36 -17 21 -10 -10 -67 -14 -67 -5 0 5 -7 9 -15 9 -8 0 -29 7
-47 16 -18 9 -57 26 -86 38 -41 18 -52 27 -52 46 0 14 -6 23 -15 23 -17 0 -55
-35 -55 -50 0 -5 -5 -10 -11 -10 -5 0 -8 4 -5 8 3 5 -2 22 -10 38 -9 16 -23
49 -31 74 -8 25 -22 53 -30 62 -8 9 -12 22 -8 27 9 15 26 14 24 -1 -3 -24 1
-38 10 -38 11 0 21 49 11 55 -14 9 -20 68 -9 82 7 7 13 28 15 46 1 17 7 33 13
35 9 3 9 7 1 17 -9 10 -6 19 10 35 11 11 26 18 31 14 7 -4 9 1 5 14 -9 26 19
55 45 47 14 -5 19 -1 19 14 0 11 9 22 20 26 11 3 20 11 20 16 0 5 11 9 25 9
18 0 25 5 25 19 0 13 9 21 29 26 28 6 73 44 55 46 -5 1 2 4 16 8 14 4 25 13
25 21 0 14 13 17 45 9 8 -2 14 1 13 8 -2 6 7 15 19 19 32 10 54 34 40 43 -11
7 72 127 165 237 29 35 39 54 33 64 -5 8 -6 18 -4 22 3 4 1 8 -4 8 -10 0 -161
-180 -182 -218 -32 -58 -62 -92 -81 -92 -10 0 -19 -4 -19 -9 0 -5 -13 -14 -30
-20 -16 -5 -30 -14 -30 -20 0 -5 -21 -14 -47 -20 -57 -13 -146 -55 -136 -64 3
-4 -6 -7 -20 -7 -20 0 -27 -5 -27 -20 0 -15 -7 -20 -25 -20 -19 0 -26 -7 -34
-36 -10 -35 -69 -99 -103 -110 -10 -3 -18 -13 -18 -23 0 -10 -8 -29 -19 -42
-17 -23 -21 -65 -7 -87 3 -5 -1 -15 -9 -22 -13 -11 -13 -14 2 -26 17 -12 17
-13 0 -19 -11 -5 -14 -11 -9 -19 5 -6 12 -31 16 -55 4 -24 10 -49 14 -55 3 -6
8 -20 9 -30 2 -11 8 -25 14 -33 6 -7 9 -29 7 -48 -2 -19 0 -35 5 -35 4 0 5 -4
2 -10 -3 -5 -2 -10 4 -10 18 0 66 -52 64 -69 -1 -9 0 -11 3 -3 13 29 58 -8 49
-42 -2 -11 -2 -15 1 -8 8 16 24 15 24 -2 0 -18 25 -27 37 -15 12 12 43 1 43
-15 0 -6 5 -4 10 4 7 10 10 11 10 2 0 -10 4 -10 20 0 17 11 22 11 29 0 4 -7
15 -10 24 -6 12 4 17 1 17 -10 0 -19 11 -21 27 -5 8 8 17 5 31 -9 11 -11 23
-18 26 -14 3 3 6 -2 6 -11 0 -11 8 -17 24 -17 14 0 31 -9 40 -21 8 -12 19 -18
25 -15 5 4 16 -3 24 -14 8 -12 20 -18 29 -15 9 4 23 -1 32 -10 9 -9 16 -14 16
-10 0 3 13 -2 30 -12 16 -9 30 -24 30 -31 0 -8 6 -12 15 -8 10 4 15 -1 15 -14
0 -13 9 -22 27 -26 42 -10 93 -47 93 -68 0 -12 5 -16 15 -12 8 3 26 -6 41 -19
15 -14 30 -22 35 -19 5 3 9 0 9 -5 0 -6 6 -11 14 -11 8 0 17 -9 21 -19 3 -11
19 -22 36 -26 17 -4 33 -13 36 -21 4 -10 17 -12 49 -7 34 4 44 3 44 -8 0 -16
55 -43 83 -41 15 2 16 -1 7 -18 -12 -22 -1 -27 18 -8 9 9 12 7 13 -12 1 -17 3
-20 6 -8 2 10 6 18 7 18 13 0 66 -23 66 -29 0 -4 10 -7 21 -8 12 -1 29 -9 38
-17 10 -9 28 -16 40 -16 12 0 30 -4 40 -10 10 -5 47 -10 82 -12 35 -1 69 -5
74 -8 6 -4 33 -7 60 -8 56 0 78 -4 85 -13 3 -4 35 -2 72 3 57 9 70 8 83 -6 14
-13 20 -14 38 -4 12 7 25 11 30 10 4 -1 7 3 7 8 0 6 11 10 25 10 14 0 25 5 25
10 0 6 12 9 27 8 20 -2 30 3 39 22 11 21 14 22 20 7 3 -9 10 -14 15 -11 5 3 6
10 3 16 -4 7 -2 8 5 4 6 -4 8 -12 5 -18 -4 -6 -1 -9 5 -7 7 3 13 9 13 14 0 31
19 43 68 42 52 0 99 22 49 24 -23 1 -23 1 4 9 16 5 34 13 41 19 7 6 16 8 19 4
4 -3 7 -1 7 6 0 7 4 10 9 7 5 -4 11 -3 13 2 1 4 44 32 93 61 50 30 129 84 177
122 48 38 85 62 81 54 -3 -10 2 -15 16 -15 14 0 23 8 27 25 3 14 10 25 15 25
5 0 9 7 9 15 0 8 7 15 15 15 8 0 15 7 15 15 0 8 9 15 20 15 12 0 17 5 14 14
-3 9 7 21 25 32 36 21 51 55 51 109 -1 22 0 47 2 55 9 40 38 55 38 20 0 -11 4
-20 10 -20 5 0 3 -19 -4 -44 l-13 -44 31 10 c17 6 38 17 46 24 8 7 32 15 53
19 20 4 51 20 67 35 17 15 30 26 30 24 0 -6 50 48 78 85 12 16 22 34 22 39 0
5 7 15 15 22 32 26 105 148 99 164 -4 9 -1 16 6 16 15 0 8 163 -8 183 -5 6
-13 23 -17 37 -22 76 -136 171 -253 211 -57 19 -64 25 -113 97 -125 186 -364
482 -388 482 -5 0 -14 13 -20 28 -14 34 -119 138 -176 174 -22 14 -50 35 -62
47 -28 26 -37 27 -30 1 3 -11 1 -20 -5 -20 -6 0 -8 13 -6 30 4 29 -5 37 -36
31 -5 -1 -12 2 -15 7 -3 4 -36 21 -72 37 l-67 29 29 28 c29 29 59 109 59 157
0 40 -20 137 -51 252 -16 59 -29 118 -29 132 0 32 -18 79 -33 89 -9 6 -9 8 1
8 15 0 5 48 -15 68 -7 7 -13 19 -13 26 0 15 -112 115 -150 134 -26 13 -32 14
-113 8 -77 -6 -83 -2 -83 57 0 102 -7 131 -34 149 -14 10 -29 18 -33 18 -4 0
-6 -33 -3 -72z m291 -320 c10 -22 23 -38 33 -38 17 0 64 -86 67 -122 1 -10 9
-26 17 -35 9 -10 22 -47 28 -83 6 -35 16 -72 21 -82 15 -28 27 -171 16 -198
-5 -14 -11 -41 -14 -60 -2 -19 -8 -36 -13 -38 -6 -2 -10 -10 -10 -18 0 -8 -3
-14 -8 -14 -4 0 -16 -16 -26 -35 -11 -19 -25 -35 -32 -35 -7 0 -19 -2 -27 -5
-8 -4 -14 0 -14 10 0 9 6 14 13 11 7 -3 15 2 18 10 5 12 1 14 -17 9 -19 -5
-20 -5 -4 5 9 6 15 15 12 20 -6 10 20 62 28 54 14 -14 31 47 32 114 1 53 -2
71 -11 68 -22 -9 -32 14 -22 52 12 45 13 76 3 122 -4 19 -8 42 -8 50 0 8 -6
25 -13 39 -7 13 -11 28 -8 33 8 13 -40 8 -59 -6 -24 -19 -22 -130 4 -167 10
-14 17 -39 17 -56 -1 -17 6 -41 16 -54 20 -29 21 -51 1 -25 -13 18 -14 17 -10
-13 3 -24 -2 -37 -23 -56 -15 -14 -30 -25 -34 -25 -5 0 -8 -6 -8 -13 0 -7 -20
-21 -45 -32 -36 -14 -44 -22 -39 -37 3 -10 1 -18 -5 -18 -6 0 -8 -6 -6 -12 8
-21 -136 -14 -151 7 -11 15 -13 14 -19 -4 -8 -26 -21 -27 -34 -4 -8 16 -10 14
-16 -9 -4 -15 -4 -32 0 -37 3 -7 0 -8 -9 -5 -18 7 -22 44 -5 44 5 0 8 4 4 10
-3 5 -13 6 -23 3 -13 -5 -15 -4 -7 8 6 8 12 26 14 42 2 23 -3 29 -28 38 -26 9
-29 14 -21 29 14 26 13 30 -12 30 -30 0 -16 11 18 13 18 2 29 8 29 17 0 8 4
21 8 28 5 7 4 12 -2 12 -6 0 -11 -4 -11 -10 0 -5 -8 -10 -17 -10 -9 0 -25 -8
-36 -17 -11 -10 -17 -12 -13 -5 4 7 1 15 -9 18 -16 7 -17 33 0 47 6 5 -5 6
-23 3 -30 -5 -32 -4 -22 14 6 11 17 20 25 20 8 0 12 6 9 15 -4 10 -16 13 -37
9 -18 -2 -26 -2 -19 2 6 3 12 12 12 20 0 9 -4 12 -10 9 -6 -4 -7 1 -3 11 5 13
3 16 -10 11 -9 -3 -17 -2 -17 4 0 6 -8 8 -18 4 -11 -3 -29 3 -45 15 -39 31
-50 26 -44 -20 4 -32 2 -40 -13 -45 -11 -3 -22 -15 -25 -26 -4 -10 -10 -19
-15 -19 -11 0 -17 130 -6 137 4 3 2 10 -5 15 -11 7 -11 11 -1 15 6 2 12 12 12
22 0 9 10 32 23 51 41 60 56 98 43 105 -8 3 -8 7 2 11 6 3 12 12 12 20 0 8 7
14 16 14 11 0 15 6 11 20 -3 11 0 23 5 27 6 3 8 2 5 -4 -4 -6 0 -19 8 -29 9
-12 14 -14 15 -6 0 7 4 11 9 7 5 -3 12 -1 16 5 10 16 35 11 36 -7 0 -17 1 -17
8 0 4 10 11 19 16 19 6 0 9 5 7 12 -2 7 0 7 9 -1 10 -10 10 -18 1 -38 -7 -15
-8 -25 -2 -25 6 0 10 7 10 15 0 17 16 20 24 6 10 -15 -4 -39 -27 -46 -22 -7
-22 -7 3 -15 14 -4 21 -8 17 -9 -4 -1 4 -13 18 -28 26 -29 33 -53 14 -53 -8 0
-8 -5 1 -15 7 -8 9 -15 6 -15 -4 0 0 -10 8 -21 8 -12 12 -27 10 -34 -5 -11 70
-85 87 -85 16 0 18 34 3 51 -16 18 -16 19 2 19 10 0 30 -3 43 -7 l23 -6 -22
-12 c-20 -11 -21 -13 -6 -28 9 -8 16 -20 16 -26 0 -6 8 -11 19 -11 14 0 18 6
16 25 -2 15 4 30 15 38 9 6 18 17 18 22 1 6 9 12 19 13 23 5 42 22 24 22 -7 0
-9 5 -5 11 10 17 12 89 2 89 -5 0 -6 5 -3 10 3 6 15 10 26 10 10 0 19 4 19 9
0 6 9 8 20 6 12 -2 30 -1 42 4 19 7 19 8 3 24 -9 9 -26 17 -38 17 -17 0 -19 2
-8 9 8 5 12 18 8 30 -4 15 0 21 11 21 15 1 15 2 0 14 -21 16 -22 22 -6 40 18
19 51 -7 73 -56z m-390 -28 c-7 -12 -32 -13 -39 -2 -2 4 7 9 20 10 15 1 22 -2
19 -8z m-392 -345 c-3 -9 -8 -14 -10 -11 -3 3 -2 9 2 15 9 16 15 13 8 -4z m18
-79 c6 -6 9 -6 9 2 0 15 27 16 36 1 10 -17 7 -68 -6 -83 -12 -15 -3 -49 11
-40 12 7 0 -47 -13 -61 -6 -7 -9 -7 -8 0 5 25 -1 33 -22 28 -13 -3 -20 -2 -15
2 4 5 0 16 -9 26 -9 10 -14 25 -11 32 3 8 0 20 -6 26 -8 8 -8 11 1 11 7 0 12
5 12 10 0 6 -7 10 -16 10 -17 0 -16 40 1 52 6 4 11 12 11 18 3 23 7 24 11 0 3
-14 9 -29 14 -34z m-41 -226 c0 -5 -9 -10 -21 -10 -11 0 -17 5 -14 10 3 6 13
10 21 10 8 0 14 -4 14 -10z m46 -37 c-3 -4 -6 -1 -6 6 0 7 -4 9 -10 6 -6 -4
-7 1 -3 11 6 15 7 15 15 -1 6 -9 7 -19 4 -22z m792 -81 c17 7 34 9 38 5 8 -8
-34 -57 -49 -57 -14 0 -70 -50 -82 -74 -6 -12 -9 -28 -7 -36 3 -8 1 -12 -3 -7
-5 4 -18 0 -31 -8 -19 -12 -24 -12 -34 -1 -7 9 -7 16 -1 20 6 4 8 13 5 21 -5
12 -10 12 -30 -3 -13 -9 -24 -23 -24 -30 0 -16 -60 13 -60 29 0 6 -8 8 -19 4
-10 -3 -24 1 -31 10 -7 8 -18 15 -25 15 -17 0 -28 27 -29 73 -1 43 7 45 64 18
l39 -19 22 24 c14 15 26 21 32 15 5 -5 16 -7 23 -4 8 3 14 -1 14 -10 0 -9 6
-20 13 -24 7 -4 21 -19 31 -33 l17 -25 -1 25 c-5 68 0 91 23 99 17 7 28 4 47
-15 23 -21 29 -23 58 -12z m-584 6 c-6 -9 53 -21 66 -13 5 3 10 -1 10 -10 0
-12 -5 -15 -22 -9 -13 4 -44 8 -69 9 -25 1 -51 5 -57 9 -25 15 -10 26 32 24
24 -2 42 -6 40 -10z m46 2 c0 -5 -4 -10 -9 -10 -6 0 -13 5 -16 10 -3 6 1 10 9
10 9 0 16 -4 16 -10z m-300 -130 c0 -5 -4 -10 -10 -10 -5 0 -10 5 -10 10 0 6
5 10 10 10 6 0 10 -4 10 -10z m1014 -84 c-1 -9 2 -16 7 -16 5 0 9 -7 9 -15 0
-8 5 -15 10 -15 6 0 10 10 10 22 0 21 0 21 21 2 15 -13 23 -15 26 -7 6 16 63
-4 63 -23 0 -8 7 -14 15 -14 8 0 15 -7 15 -15 0 -14 3 -14 24 0 23 16 24 15
19 -4 -5 -21 11 -30 21 -12 3 4 17 6 31 3 21 -4 25 -10 25 -37 0 -18 6 -35 13
-38 9 -3 9 -7 0 -17 -9 -10 -22 -9 -62 5 -28 9 -51 21 -51 27 0 6 -9 8 -20 5
-10 -3 -24 1 -31 9 -6 8 -17 14 -25 14 -7 0 -19 8 -26 18 -15 20 -45 42 -34
24 3 -6 2 -13 -4 -17 -9 -6 -15 16 -11 39 1 5 -5 3 -14 -4 -14 -11 -21 -8 -50
20 -33 32 -34 35 -18 52 19 21 39 18 37 -6z m-454 -18 c0 -6 -6 -5 -15 2 -8 7
-15 14 -15 16 0 2 7 1 15 -2 8 -4 15 -11 15 -16z m-128 -84 c-3 -19 -7 -22
-13 -12 -14 21 -11 48 5 42 8 -3 11 -15 8 -30z m245 -55 c1 -12 -14 -42 -33
-67 -34 -44 -46 -94 -21 -89 6 1 12 -7 12 -18 0 -28 -30 -30 -55 -5 -16 16
-20 29 -15 47 5 22 3 25 -15 20 -16 -4 -20 -2 -16 9 3 8 -1 14 -9 14 -8 0 -15
4 -15 9 0 9 38 26 83 37 15 3 27 10 27 15 0 5 7 6 15 3 10 -4 18 3 25 20 12
32 15 33 17 5z m688 -119 c-14 -23 -27 -8 -40 48 -2 7 8 2 22 -12 13 -14 22
-30 18 -36z m237 -52 c32 -35 58 -68 58 -73 0 -6 8 -18 18 -26 10 -9 41 -49
68 -90 27 -41 52 -75 56 -77 4 -2 5 -9 2 -16 -3 -7 8 -26 25 -42 16 -15 28
-31 26 -35 -3 -4 3 -13 12 -20 13 -11 17 -11 20 -1 6 17 43 15 43 -3 0 -12 8
-14 42 -9 36 6 40 5 35 -9 -4 -10 -2 -17 4 -17 6 0 25 -11 43 -25 18 -14 40
-25 49 -25 10 0 16 -3 15 -7 -1 -5 15 -34 37 -67 36 -53 39 -65 38 -116 -1
-49 2 -59 18 -63 14 -4 19 -14 19 -39 0 -38 -15 -59 -36 -51 -8 3 -14 0 -14
-6 0 -5 -13 -26 -30 -44 -16 -19 -30 -42 -30 -51 0 -28 -17 -17 -24 16 -10 50
-21 57 -66 46 -22 -6 -37 -14 -34 -19 3 -5 -3 -9 -13 -9 -14 0 -15 -2 -4 -9
11 -7 9 -10 -7 -15 -14 -5 -19 -13 -16 -29 4 -19 3 -19 -7 3 l-12 25 -10 -32
c-5 -18 -14 -33 -18 -33 -5 0 -20 -12 -34 -27 -14 -16 -25 -23 -24 -18 1 6 1
21 0 35 -1 24 -1 24 -15 5 -7 -11 -16 -29 -19 -40 -4 -18 -5 -17 -6 3 -1 14
-5 21 -12 16 -6 -3 -9 -15 -6 -25 7 -25 -12 -13 -22 15 -6 13 -4 31 5 48 8 15
14 45 14 67 0 35 -7 46 -59 98 -32 32 -76 73 -96 92 -28 25 -35 38 -31 56 4
15 1 25 -9 29 -24 9 -17 24 9 19 15 -3 25 1 29 11 4 9 2 16 -4 16 -6 0 -8 7
-5 16 4 12 1 14 -14 9 -11 -4 -20 -2 -20 4 0 6 5 11 10 11 6 0 10 7 10 15 0 8
-4 15 -9 15 -6 0 -10 8 -9 18 0 28 -8 78 -16 91 -4 6 -3 11 3 11 6 0 8 7 5 15
-4 8 -13 15 -21 15 -8 0 -13 6 -10 13 2 6 0 25 -4 40 -7 23 -4 30 14 38 l22
10 -22 -5 c-15 -3 -23 1 -23 10 0 8 10 14 24 14 31 0 40 32 14 49 -15 9 -18
19 -13 42 6 25 4 29 -14 29 -22 0 -28 19 -11 36 12 12 2 74 -12 74 -5 0 -6 5
-3 10 3 6 1 10 -5 10 -8 0 -8 6 0 20 6 11 13 20 17 20 3 0 32 -28 65 -62z
m-947 -88 c-3 -5 -10 -10 -16 -10 -5 0 -9 5 -9 10 0 6 7 10 16 10 8 0 12 -4 9
-10z m355 -74 c0 -3 -4 -8 -10 -11 -5 -3 -10 -1 -10 4 0 6 5 11 10 11 6 0 10
-2 10 -4z m-321 -197 c-11 -22 -24 -37 -30 -34 -5 4 -7 10 -4 15 3 5 1 19 -4
32 -5 15 -5 31 0 41 9 16 12 16 34 1 l24 -16 -20 -39z m788 -45 c-3 -3 -12 -4
-19 -1 -8 3 -5 6 6 6 11 1 17 -2 13 -5z m-791 -21 c-2 -9 -8 -19 -14 -21 -8
-2 -10 13 -3 36 1 1 5 2 10 2 5 0 8 -8 7 -17z m927 -334 c48 -48 77 -83 70
-86 -7 -3 -13 -12 -13 -21 0 -11 -3 -13 -8 -6 -12 17 -39 23 -51 11 -8 -8 -11
-8 -11 2 0 7 -6 11 -12 9 -7 -3 -19 1 -26 9 -8 7 -18 11 -23 8 -5 -4 -9 -1 -9
5 0 6 -10 22 -22 35 -49 52 -50 53 -28 65 11 6 20 17 20 25 0 11 9 19 28 24 1
1 40 -36 85 -80z m-813 -54 c0 -9 9 -34 21 -57 15 -30 24 -37 32 -29 14 14 40
15 32 1 -9 -14 8 -13 23 2 9 9 27 -3 77 -54 39 -40 65 -75 65 -88 0 -12 5 -18
10 -15 6 3 10 -1 10 -9 0 -9 0 -19 1 -23 0 -4 -4 -9 -10 -11 -6 -2 -11 1 -11
7 0 6 -9 20 -21 32 -20 20 -21 20 -35 2 -12 -14 -16 -15 -21 -4 -5 11 -7 11
-14 0 -7 -11 -9 -11 -9 -1 0 7 -4 10 -10 7 -5 -3 -10 0 -10 9 0 8 -13 20 -29
27 -17 8 -27 18 -24 26 3 7 -1 14 -8 14 -48 4 -120 29 -114 39 4 6 -1 10 -9
10 -9 0 -16 6 -16 14 0 7 -7 26 -15 42 -17 33 -5 54 31 54 12 0 26 5 29 10 9
15 25 12 25 -5z m-1956 -30 c-4 -8 -7 -15 -9 -15 -2 0 -5 7 -9 15 -3 9 0 15 9
15 9 0 12 -6 9 -15z m21 -51 c9 -15 12 -23 6 -20 -11 7 -35 46 -28 46 3 0 12
-12 22 -26z m29 -50 c10 -25 -1 -29 -14 -5 -6 12 -7 21 -1 21 5 0 12 -7 15
-16z m2806 -106 c0 -26 -9 -19 -15 11 -2 12 0 19 6 16 5 -4 9 -16 9 -27z
m-1810 -422 c0 -11 -19 -15 -25 -6 -3 5 1 10 9 10 9 0 16 -2 16 -4z m1528 -10
c-2 -1 -11 -8 -20 -15 -16 -12 -18 -11 -18 7 0 15 5 19 20 15 12 -3 19 -6 18
-7z m-113 -77 c-10 -15 -25 -10 -19 6 4 8 10 12 15 9 5 -3 7 -10 4 -15z m-73
-44 c-35 -24 -52 -25 -52 -5 0 16 7 19 35 18 30 -1 32 -3 17 -13z m-625 -17
c-3 -8 -6 -5 -6 6 -1 11 2 17 5 13 3 -3 4 -12 1 -19z m67 1 c-6 -11 -24 -2
-24 11 0 5 7 7 15 4 8 -4 12 -10 9 -15z"/>
<path d="M2528 3673 c7 -3 16 -2 19 1 4 3 -2 6 -13 5 -11 0 -14 -3 -6 -6z"/>
<path d="M2491 3631 c-19 -27 -20 -29 -3 -47 12 -12 16 -29 14 -51 -4 -32 -3
-33 21 -24 22 9 24 7 20 -12 -4 -18 -3 -19 6 -7 6 8 11 23 11 33 0 14 -5 17
-22 12 -20 -5 -21 -4 -6 5 10 6 25 10 35 8 12 -2 17 6 20 30 4 33 4 34 -26 27
-24 -5 -31 -3 -31 9 0 10 6 13 16 9 11 -4 15 -2 12 7 -2 7 -14 17 -26 21 -17
6 -25 2 -41 -20z"/>
<path d="M3026 3355 c-3 -8 -11 -12 -18 -10 -10 4 -13 -8 -13 -43 0 -47 1 -49
28 -50 17 0 27 5 27 13 0 9 6 12 15 9 13 -5 14 -2 6 19 -6 15 -6 27 -1 29 5 2
-1 13 -14 26 -20 18 -25 19 -30 7z"/>
<path d="M4360 1599 c0 -5 5 -7 10 -4 6 3 10 8 10 11 0 2 -4 4 -10 4 -5 0 -10
-5 -10 -11z"/>
<path d="M2061 2814 c-17 -14 -31 -30 -31 -35 0 -5 10 0 23 11 12 10 31 26 42
34 11 9 15 16 8 16 -6 0 -25 -12 -42 -26z"/>
<path d="M2146 2825 c-9 -26 -7 -32 5 -12 6 10 9 21 6 23 -2 3 -7 -2 -11 -11z"/>
<path d="M1869 2638 c-35 -39 -41 -58 -18 -58 5 0 9 7 9 15 0 9 6 12 15 9 10
-4 15 0 15 15 0 12 4 21 9 21 5 0 11 9 14 20 8 29 -1 25 -44 -22z"/>
<path d="M3180 2240 c0 -5 5 -10 11 -10 5 0 7 5 4 10 -3 6 -8 10 -11 10 -2 0
-4 -4 -4 -10z"/>
<path d="M3120 1980 c0 -5 5 -10 11 -10 5 0 7 5 4 10 -3 6 -8 10 -11 10 -2 0
-4 -4 -4 -10z"/>
<path d="M1010 1520 c0 -5 5 -10 10 -10 6 0 10 5 10 10 0 6 -4 10 -10 10 -5 0
-10 -4 -10 -10z"/>
<path d="M3910 1395 c0 -8 2 -15 4 -15 2 0 6 7 10 15 3 8 1 15 -4 15 -6 0 -10
-7 -10 -15z"/>
<path d="M3413 762 c-7 -4 -9 -13 -4 -21 6 -10 10 -9 15 5 8 20 4 25 -11 16z"/>
</g>
</svg>
